<svg xmlns="http://www.w3.org/2000/svg" viewBox="0 0 1600 900" role="img" aria-labelledby="t d">
  <title id="t">Schematic: Select contract to create order</title>
  <desc id="d">Editorial layout abstraction. UI text and data redacted under NDA.</desc>

  <rect width="1600" height="900" fill="#F4F1EA"/>

  <g opacity="0.4">

  <!-- BROWSER CHROME -->
  <rect x="0" y="0" width="1600" height="34" fill="#11111008"/>
  <line x1="0" y1="34" x2="1600" y2="34" stroke="#11111018"/>
  <rect x="14" y="10" width="180" height="24" rx="4" fill="#F4F1EA" stroke="#11111018"/>
  <rect x="30" y="19" width="120" height="6" fill="#11111060"/>
  <rect x="0" y="34" width="1600" height="40" fill="#F4F1EA"/>
  <line x1="0" y1="74" x2="1600" y2="74" stroke="#11111018"/>
  <rect x="100" y="46" width="1300" height="22" rx="11" fill="none" stroke="#11111028"/>
  <rect x="118" y="54" width="380" height="6" fill="#11111060"/>

  <!-- DARK HEADER -->
  <rect x="0" y="74" width="1600" height="58" fill="#111110"/>
  <g fill="#F4F1EA" opacity=".75">
    <rect x="22" y="96" width="3" height="3"/><rect x="30" y="96" width="3" height="3"/><rect x="38" y="96" width="3" height="3"/>
    <rect x="22" y="104" width="3" height="3"/><rect x="30" y="104" width="3" height="3"/><rect x="38" y="104" width="3" height="3"/>
    <rect x="22" y="112" width="3" height="3"/><rect x="30" y="112" width="3" height="3"/><rect x="38" y="112" width="3" height="3"/>
  </g>
  <rect x="68" y="100" width="170" height="8" fill="#F4F1EA" opacity=".9"/>
  <rect x="540" y="89" width="520" height="28" rx="2" fill="none" stroke="#F4F1EA" stroke-opacity=".25"/>
  <rect x="558" y="100" width="280" height="6" fill="#F4F1EA" opacity=".45"/>
  <rect x="1410" y="93" width="20" height="20" fill="none" stroke="#F4F1EA" stroke-opacity=".3"/>
  <rect x="1444" y="93" width="20" height="20" fill="none" stroke="#F4F1EA" stroke-opacity=".3"/>
  <rect x="1478" y="93" width="20" height="20" fill="none" stroke="#F4F1EA" stroke-opacity=".3"/>
  <rect x="1512" y="93" width="56" height="20" fill="none" stroke="#F4F1EA" stroke-opacity=".3"/>

  <!-- LEFT RAIL -->
  <line x1="240" y1="132" x2="240" y2="900" stroke="#11111018"/>
  <rect x="22" y="156" width="18" height="2" fill="#11111060"/>
  <rect x="22" y="164" width="18" height="2" fill="#11111060"/>
  <rect x="22" y="172" width="18" height="2" fill="#11111060"/>
  <g>
    <rect x="22" y="206" width="14" height="14" fill="none" stroke="#11111060"/><rect x="46" y="210" width="58" height="6" fill="#11111080"/>
    <rect x="22" y="240" width="14" height="14" fill="none" stroke="#11111060"/><rect x="46" y="244" width="46" height="6" fill="#11111080"/>
    <rect x="22" y="272" width="14" height="14" fill="none" stroke="#11111060"/><rect x="46" y="276" width="58" height="6" fill="#11111080"/>
    <rect x="22" y="304" width="14" height="14" fill="none" stroke="#11111060"/><rect x="46" y="308" width="54" height="6" fill="#11111080"/>
    <rect x="22" y="336" width="14" height="14" fill="none" stroke="#11111060"/><rect x="46" y="340" width="38" height="6" fill="#11111080"/>
    <rect x="22" y="368" width="14" height="14" fill="none" stroke="#11111060"/><rect x="46" y="372" width="72" height="6" fill="#11111080"/>
    <rect x="22" y="400" width="14" height="14" fill="none" stroke="#111110" stroke-width="1.2"/><rect x="46" y="404" width="46" height="6" fill="#111110"/>
    <path d="M206 410 l6 -6 6 6" fill="none" stroke="#111110"/>
    <rect x="46" y="436" width="100" height="6" fill="#11111080"/>
    <rect x="0" y="458" width="240" height="28" fill="#11111010"/>
    <rect x="0" y="458" width="3" height="28" fill="#C8331C"/>
    <rect x="46" y="471" width="92" height="6" fill="#111110"/>
    <rect x="46" y="500" width="56" height="6" fill="#11111080"/>
    <rect x="46" y="526" width="106" height="6" fill="#11111080"/>
    <rect x="46" y="552" width="120" height="6" fill="#11111080"/>
    <rect x="46" y="578" width="106" height="6" fill="#11111080"/>
    <rect x="22" y="610" width="14" height="14" fill="none" stroke="#11111060"/><rect x="46" y="614" width="50" height="6" fill="#11111080"/>
    <rect x="22" y="642" width="14" height="14" fill="none" stroke="#11111060"/><rect x="46" y="646" width="58" height="6" fill="#11111080"/>
    <rect x="22" y="674" width="14" height="14" fill="none" stroke="#11111060"/><rect x="46" y="678" width="42" height="6" fill="#11111080"/>
  </g>

  <!-- ============ MAIN ============ -->
  <!-- breadcrumb (4 levels) -->
  <g>
    <rect x="288" y="170" width="44" height="6" fill="#11111060"/>
    <path d="M342 171 l6 5 -6 5" fill="none" stroke="#11111040"/>
    <rect x="358" y="170" width="84" height="6" fill="#11111060"/>
    <path d="M452 171 l6 5 -6 5" fill="none" stroke="#11111040"/>
    <rect x="468" y="170" width="100" height="6" fill="#11111060"/>
    <path d="M578 171 l6 5 -6 5" fill="none" stroke="#11111040"/>
    <rect x="594" y="170" width="100" height="6" fill="#11111080"/>
  </g>

  <!-- title + description (left column only) -->
  <rect x="288" y="200" width="380" height="28" fill="#111110"/>
  <rect x="288" y="248" width="640" height="6" fill="#11111080"/>
  <rect x="288" y="262" width="500" height="6" fill="#11111080"/>

  <!-- right pane divider -->
  <line x1="1010" y1="155" x2="1010" y2="800" stroke="#11111018"/>

  <!-- right pane: empty state -->
  <rect x="1040" y="200" width="160" height="14" fill="#111110"/>
  <g transform="translate(1130 380)" opacity=".7">
    <rect x="0" y="0" width="120" height="80" fill="none" stroke="#11111060"/>
    <rect x="14" y="14" width="120" height="80" fill="none" stroke="#11111060"/>
    <rect x="28" y="28" width="120" height="80" fill="none" stroke="#11111060"/>
  </g>
  <rect x="1110" y="490" width="160" height="6" fill="#11111080"/>
  <rect x="1130" y="504" width="120" height="6" fill="#11111080"/>

  <!-- left pane: items count + search -->
  <rect x="638" y="318" width="60" height="6" fill="#11111080"/>
  <rect x="710" y="306" width="280" height="28" rx="2" fill="none" stroke="#11111028"/>
  <rect x="730" y="316" width="120" height="6" fill="#11111060"/>

  <!-- left pane: filter chips -->
  <rect x="288" y="360" width="40" height="6" fill="#11111060"/>
  <rect x="338" y="350" width="120" height="26" rx="13" fill="none" stroke="#11111028"/>
  <rect x="358" y="361" width="80" height="4" fill="#11111080"/>
  <rect x="466" y="350" width="100" height="26" rx="13" fill="none" stroke="#11111028"/>
  <rect x="486" y="361" width="60" height="4" fill="#11111080"/>
  <rect x="574" y="350" width="160" height="26" rx="13" fill="none" stroke="#11111028"/>
  <rect x="594" y="361" width="120" height="4" fill="#11111080"/>
  <rect x="742" y="350" width="100" height="26" rx="13" fill="none" stroke="#11111028"/>
  <rect x="762" y="361" width="60" height="4" fill="#11111080"/>
  <rect x="850" y="350" width="100" height="26" rx="13" fill="none" stroke="#11111028"/>
  <rect x="870" y="361" width="60" height="4" fill="#11111080"/>

  <!-- table header -->
  <line x1="288" y1="402" x2="990" y2="402" stroke="#111110"/>
  <g>
    <rect x="288" y="412" width="14" height="14" fill="none" stroke="#11111060"/>
    <rect x="320" y="416" width="60" height="6" fill="#111110"/>
    <rect x="408" y="416" width="50" height="6" fill="#111110"/>
    <rect x="496" y="416" width="74" height="6" fill="#111110"/>
    <rect x="600" y="416" width="48" height="6" fill="#111110"/>
    <rect x="690" y="416" width="100" height="6" fill="#111110"/>
    <rect x="816" y="416" width="100" height="6" fill="#111110"/>
    <rect x="932" y="416" width="48" height="6" fill="#111110"/>
  </g>

  <!-- table rows (8) -->
  <g>
    <line x1="288" y1="450" x2="990" y2="450" stroke="#11111014"/>
    <line x1="288" y1="490" x2="990" y2="490" stroke="#11111014"/>
    <line x1="288" y1="530" x2="990" y2="530" stroke="#11111014"/>
    <line x1="288" y1="570" x2="990" y2="570" stroke="#11111014"/>
    <line x1="288" y1="610" x2="990" y2="610" stroke="#11111014"/>
    <line x1="288" y1="650" x2="990" y2="650" stroke="#11111014"/>
    <line x1="288" y1="690" x2="990" y2="690" stroke="#11111014"/>
    <line x1="288" y1="730" x2="990" y2="730" stroke="#11111014"/>
  </g>

  <!-- row content (repeat) -->
  <g>
    <!-- 8 rows of cells -->
    <!-- y starts 462, step 40 -->
    <g>
      <rect x="288" y="466" width="14" height="14" fill="none" stroke="#11111040"/>
      <rect x="320" y="470" width="80" height="6" fill="#111110"/>
      <rect x="408" y="470" width="60" height="6" fill="#11111080"/>
      <rect x="496" y="470" width="92" height="6" fill="#11111080"/>
      <rect x="600" y="470" width="80" height="6" fill="#11111080"/>
      <rect x="690" y="470" width="120" height="6" fill="#11111080"/>
      <rect x="816" y="470" width="84" height="6" fill="#11111080"/>
      <rect x="932" y="470" width="56" height="6" fill="#11111080"/>
    </g>
    <g transform="translate(0 40)">
      <rect x="288" y="466" width="14" height="14" fill="none" stroke="#11111040"/>
      <rect x="320" y="470" width="80" height="6" fill="#111110"/>
      <rect x="408" y="470" width="60" height="6" fill="#11111080"/>
      <rect x="496" y="470" width="80" height="6" fill="#11111080"/>
      <rect x="600" y="470" width="74" height="6" fill="#11111080"/>
      <rect x="690" y="466" width="6" height="6" fill="#C8331C"/><rect x="700" y="466" width="6" height="6" fill="#C8331C"/><rect x="710" y="466" width="6" height="6" fill="#C8331C"/>
      <rect x="722" y="470" width="68" height="6" fill="#11111080"/>
      <rect x="816" y="470" width="84" height="6" fill="#11111080"/>
      <path d="M932 466 l6 6 6 -6" fill="#C8331C"/>
      <rect x="950" y="470" width="40" height="6" fill="#C8331C"/>
    </g>
    <g transform="translate(0 80)">
      <rect x="288" y="466" width="14" height="14" fill="none" stroke="#11111040"/>
      <rect x="320" y="470" width="80" height="6" fill="#111110"/>
      <rect x="408" y="470" width="60" height="6" fill="#11111080"/>
      <rect x="496" y="470" width="100" height="6" fill="#11111080"/>
      <rect x="600" y="470" width="74" height="6" fill="#11111080"/>
      <rect x="690" y="466" width="6" height="6" fill="#C8331C"/><rect x="700" y="466" width="6" height="6" fill="#C8331C"/><rect x="710" y="466" width="6" height="6" fill="#C8331C"/>
      <rect x="722" y="470" width="68" height="6" fill="#11111080"/>
      <rect x="816" y="470" width="84" height="6" fill="#11111080"/>
      <rect x="932" y="470" width="56" height="6" fill="#11111080"/>
    </g>
    <g transform="translate(0 120)">
      <rect x="288" y="466" width="14" height="14" fill="none" stroke="#11111040"/>
      <rect x="320" y="470" width="80" height="6" fill="#111110"/>
      <rect x="408" y="470" width="60" height="6" fill="#11111080"/>
      <rect x="496" y="470" width="120" height="6" fill="#11111080"/>
      <rect x="600" y="470" width="74" height="6" fill="#11111080"/>
      <rect x="690" y="470" width="120" height="6" fill="#11111080"/>
      <rect x="816" y="470" width="84" height="6" fill="#11111080"/>
      <rect x="932" y="470" width="56" height="6" fill="#11111080"/>
    </g>
    <g transform="translate(0 160)">
      <rect x="288" y="466" width="14" height="14" fill="none" stroke="#11111040"/>
      <rect x="320" y="470" width="80" height="6" fill="#111110"/>
      <rect x="408" y="470" width="60" height="6" fill="#11111080"/>
      <rect x="496" y="470" width="84" height="6" fill="#11111080"/>
      <rect x="600" y="470" width="68" height="6" fill="#11111080"/>
      <rect x="690" y="470" width="120" height="6" fill="#11111080"/>
      <rect x="816" y="470" width="84" height="6" fill="#11111080"/>
      <rect x="932" y="470" width="56" height="6" fill="#11111080"/>
    </g>
    <g transform="translate(0 200)">
      <rect x="288" y="466" width="14" height="14" fill="none" stroke="#11111040"/>
      <rect x="320" y="470" width="80" height="6" fill="#111110"/>
      <rect x="408" y="470" width="60" height="6" fill="#11111080"/>
      <rect x="496" y="470" width="106" height="6" fill="#11111080"/>
      <rect x="600" y="470" width="74" height="6" fill="#11111080"/>
      <rect x="690" y="470" width="120" height="6" fill="#11111080"/>
      <rect x="816" y="470" width="84" height="6" fill="#11111080"/>
      <rect x="932" y="470" width="56" height="6" fill="#11111080"/>
    </g>
    <g transform="translate(0 240)">
      <rect x="288" y="466" width="14" height="14" fill="none" stroke="#11111040"/>
      <rect x="320" y="470" width="80" height="6" fill="#111110"/>
      <rect x="408" y="470" width="60" height="6" fill="#11111080"/>
      <rect x="496" y="470" width="80" height="6" fill="#11111080"/>
      <rect x="600" y="470" width="74" height="6" fill="#11111080"/>
      <rect x="690" y="470" width="120" height="6" fill="#11111080"/>
      <rect x="816" y="470" width="84" height="6" fill="#11111080"/>
      <rect x="932" y="470" width="56" height="6" fill="#11111080"/>
    </g>
    <g transform="translate(0 280)">
      <rect x="288" y="466" width="14" height="14" fill="none" stroke="#11111040"/>
      <rect x="320" y="470" width="80" height="6" fill="#111110"/>
      <rect x="408" y="470" width="60" height="6" fill="#11111080"/>
      <rect x="496" y="470" width="60" height="6" fill="#11111080"/>
      <rect x="600" y="470" width="74" height="6" fill="#11111080"/>
      <rect x="690" y="470" width="120" height="6" fill="#11111080"/>
      <rect x="816" y="470" width="84" height="6" fill="#11111080"/>
      <rect x="932" y="470" width="56" height="6" fill="#11111080"/>
    </g>
  </g>

  <g font-family="ui-monospace, SFMono-Regular, Menlo, monospace" font-size="10" letter-spacing="1.5" fill="#11111060">
    <text x="288" y="868">FIG · 02 — VOLUME LICENSING / SELECT CONTRACT</text>
  </g>

  </g>

  <!-- diagonal watermark -->
  <g transform="rotate(-22 800 450)" pointer-events="none">
    <rect x="0" y="426" width="1600" height="48" fill="#11111014"/>
    <text x="800" y="460" text-anchor="middle"
          font-family="ui-monospace, SFMono-Regular, Menlo, monospace"
          font-size="32" font-weight="500" letter-spacing="14"
          fill="#11111080">REDACTED · NDA</text>
  </g>
</svg>
