<svg xmlns="http://www.w3.org/2000/svg" viewBox="0 0 1600 900" role="img" aria-labelledby="t d">
  <title id="t">Schematic: Create midterm order — cart review</title>
  <desc id="d">Editorial layout abstraction. UI text and data redacted under NDA.</desc>

  <rect width="1600" height="900" fill="#F4F1EA"/>

  <g opacity="0.4">

  <!-- BROWSER CHROME -->
  <rect x="0" y="0" width="1600" height="34" fill="#11111008"/>
  <line x1="0" y1="34" x2="1600" y2="34" stroke="#11111018"/>
  <rect x="14" y="10" width="180" height="24" rx="4" fill="#F4F1EA" stroke="#11111018"/>
  <rect x="30" y="19" width="120" height="6" fill="#11111060"/>
  <rect x="0" y="34" width="1600" height="40" fill="#F4F1EA"/>
  <line x1="0" y1="74" x2="1600" y2="74" stroke="#11111018"/>
  <rect x="100" y="46" width="1300" height="22" rx="11" fill="none" stroke="#11111028"/>
  <rect x="118" y="54" width="380" height="6" fill="#11111060"/>

  <!-- DARK HEADER -->
  <rect x="0" y="74" width="1600" height="58" fill="#111110"/>
  <g fill="#F4F1EA" opacity=".75">
    <rect x="22" y="96" width="3" height="3"/><rect x="30" y="96" width="3" height="3"/><rect x="38" y="96" width="3" height="3"/>
    <rect x="22" y="104" width="3" height="3"/><rect x="30" y="104" width="3" height="3"/><rect x="38" y="104" width="3" height="3"/>
    <rect x="22" y="112" width="3" height="3"/><rect x="30" y="112" width="3" height="3"/><rect x="38" y="112" width="3" height="3"/>
  </g>
  <rect x="68" y="100" width="170" height="8" fill="#F4F1EA" opacity=".9"/>
  <rect x="540" y="89" width="520" height="28" rx="2" fill="none" stroke="#F4F1EA" stroke-opacity=".25"/>
  <rect x="558" y="100" width="280" height="6" fill="#F4F1EA" opacity=".45"/>
  <rect x="1410" y="93" width="20" height="20" fill="none" stroke="#F4F1EA" stroke-opacity=".3"/>
  <rect x="1444" y="93" width="20" height="20" fill="none" stroke="#F4F1EA" stroke-opacity=".3"/>
  <rect x="1478" y="93" width="20" height="20" fill="none" stroke="#F4F1EA" stroke-opacity=".3"/>
  <rect x="1512" y="93" width="56" height="20" fill="none" stroke="#F4F1EA" stroke-opacity=".3"/>

  <!-- LEFT RAIL collapsed -->
  <line x1="60" y1="132" x2="60" y2="900" stroke="#11111018"/>
  <g>
    <rect x="22" y="156" width="14" height="14" fill="none" stroke="#11111060"/>
    <rect x="22" y="190" width="14" height="14" fill="none" stroke="#11111060"/>
    <rect x="22" y="224" width="14" height="14" fill="none" stroke="#11111060"/>
    <rect x="22" y="258" width="14" height="14" fill="none" stroke="#11111060"/>
    <rect x="22" y="292" width="14" height="14" fill="none" stroke="#11111060"/>
    <rect x="22" y="326" width="14" height="14" fill="none" stroke="#11111060"/>
    <rect x="22" y="360" width="14" height="14" fill="none" stroke="#111110" stroke-width="1.2"/>
    <rect x="0" y="356" width="3" height="22" fill="#C8331C"/>
    <rect x="22" y="394" width="14" height="14" fill="none" stroke="#11111060"/>
    <rect x="22" y="428" width="14" height="14" fill="none" stroke="#11111060"/>
    <rect x="22" y="462" width="14" height="14" fill="none" stroke="#11111060"/>
    <rect x="22" y="496" width="14" height="14" fill="none" stroke="#11111060"/>
  </g>

  <!-- ============ MAIN ============ -->
  <!-- breadcrumb 6 levels -->
  <g>
    <rect x="100" y="160" width="44" height="6" fill="#11111060"/>
    <path d="M154 161 l6 5 -6 5" fill="none" stroke="#11111040"/>
    <rect x="170" y="160" width="84" height="6" fill="#11111060"/>
    <path d="M264 161 l6 5 -6 5" fill="none" stroke="#11111040"/>
    <rect x="280" y="160" width="100" height="6" fill="#11111060"/>
    <path d="M390 161 l6 5 -6 5" fill="none" stroke="#11111040"/>
    <rect x="406" y="160" width="100" height="6" fill="#11111060"/>
    <path d="M516 161 l6 5 -6 5" fill="none" stroke="#11111040"/>
    <rect x="532" y="160" width="84" height="6" fill="#11111060"/>
    <path d="M626 161 l6 5 -6 5" fill="none" stroke="#11111040"/>
    <rect x="642" y="160" width="40" height="6" fill="#11111080"/>
  </g>

  <!-- title with link chip + "Cart" suffix -->
  <rect x="100" y="190" width="380" height="28" fill="#111110"/>
  <rect x="492" y="196" width="160" height="22" fill="none" stroke="#C8331C"/>
  <rect x="506" y="203" width="132" height="8" fill="#C8331C"/>
  <rect x="664" y="190" width="2" height="28" fill="#11111080"/>
  <rect x="676" y="196" width="60" height="20" fill="#111110"/>

  <!-- description / link -->
  <rect x="100" y="240" width="600" height="6" fill="#11111080"/>
  <rect x="100" y="254" width="180" height="6" fill="#111110"/>
  <line x1="100" y1="262" x2="280" y2="262" stroke="#111110"/>
  <rect x="290" y="254" width="240" height="6" fill="#11111080"/>

  <!-- form: PO number/name -->
  <rect x="100" y="284" width="120" height="6" fill="#111110"/>
  <rect x="218" y="284" width="6" height="6" fill="#C8331C"/>
  <rect x="100" y="302" width="220" height="28" fill="none" stroke="#11111040"/>
  <rect x="118" y="312" width="80" height="6" fill="#11111060"/>
  <rect x="340" y="312" width="14" height="6" fill="#11111080"/>
  <rect x="364" y="304" width="14" height="14" fill="none" stroke="#11111060"/>
  <rect x="386" y="312" width="280" height="6" fill="#11111080"/>

  <!-- toolbar row -->
  <g>
    <rect x="100" y="354" width="14" height="14" fill="none" stroke="#11111040"/>
    <rect x="118" y="356" width="120" height="6" fill="#11111060"/>
    <path d="M242 358 l6 6 -6 6" fill="#11111060"/>
    <rect x="262" y="354" width="14" height="14" fill="none" stroke="#11111040"/>
    <rect x="282" y="356" width="100" height="6" fill="#11111060"/>
    <rect x="406" y="354" width="14" height="14" fill="none" stroke="#11111040"/>
    <rect x="426" y="356" width="80" height="6" fill="#11111060"/>
    <path d="M510 358 l6 6 -6 6" fill="#11111060"/>
    <rect x="540" y="354" width="14" height="14" fill="none" stroke="#11111040"/>
    <rect x="560" y="356" width="160" height="6" fill="#11111060"/>
  </g>
  <g>
    <rect x="1190" y="356" width="50" height="6" fill="#11111080"/>
    <rect x="1252" y="344" width="220" height="28" rx="2" fill="none" stroke="#11111028"/>
    <rect x="1272" y="354" width="100" height="6" fill="#11111060"/>
    <rect x="1480" y="344" width="20" height="28" fill="none" stroke="#11111040"/>
  </g>

  <!-- two summary chips -->
  <rect x="100" y="392" width="140" height="40" fill="none" stroke="#11111028"/>
  <rect x="100" y="392" width="3" height="40" fill="#188038"/>
  <rect x="116" y="402" width="80" height="6" fill="#11111080"/>
  <rect x="116" y="416" width="100" height="8" fill="#111110"/>
  <rect x="252" y="392" width="160" height="40" fill="none" stroke="#11111028"/>
  <rect x="252" y="392" width="3" height="40" fill="#C8B500"/>
  <rect x="268" y="402" width="100" height="6" fill="#11111080"/>
  <rect x="268" y="416" width="120" height="8" fill="#111110"/>

  <!-- New products section -->
  <rect x="100" y="450" width="120" height="6" fill="#111110"/>
  <rect x="226" y="450" width="200" height="6" fill="#11111080"/>
  <line x1="100" y1="476" x2="1500" y2="476" stroke="#111110"/>
  <g>
    <rect x="100" y="486" width="14" height="14" fill="none" stroke="#11111060"/>
    <rect x="132" y="490" width="60" height="6" fill="#111110"/>
    <rect x="318" y="490" width="60" height="6" fill="#111110"/>
    <rect x="408" y="490" width="80" height="6" fill="#111110"/>
    <rect x="510" y="490" width="80" height="6" fill="#111110"/>
    <rect x="606" y="490" width="80" height="6" fill="#111110"/>
    <rect x="702" y="490" width="80" height="6" fill="#111110"/>
    <rect x="798" y="490" width="80" height="6" fill="#111110"/>
    <rect x="894" y="490" width="80" height="6" fill="#111110"/>
    <rect x="990" y="490" width="80" height="6" fill="#111110"/>
    <rect x="1086" y="490" width="80" height="6" fill="#111110"/>
    <rect x="1182" y="490" width="60" height="6" fill="#111110"/>
    <rect x="1258" y="490" width="60" height="6" fill="#111110"/>
    <rect x="1334" y="490" width="84" height="6" fill="#111110"/>
  </g>
  <!-- 4 row hairlines -->
  <line x1="100" y1="528" x2="1500" y2="528" stroke="#11111014"/>
  <line x1="100" y1="568" x2="1500" y2="568" stroke="#11111014"/>
  <line x1="100" y1="608" x2="1500" y2="608" stroke="#11111014"/>
  <line x1="100" y1="648" x2="1500" y2="648" stroke="#11111014"/>
  <!-- 4 rows of cells -->
  <g>
    <g>
      <rect x="100" y="540" width="14" height="14" fill="none" stroke="#11111040"/>
      <rect x="132" y="542" width="14" height="14" fill="#C8331C" opacity=".85"/>
      <rect x="156" y="544" width="160" height="6" fill="#111110"/>
      <rect x="318" y="544" width="60" height="6" fill="#11111080"/>
      <rect x="408" y="540" width="60" height="6" fill="#11111080"/>
      <rect x="408" y="550" width="84" height="5" fill="#11111060"/>
      <rect x="510" y="544" width="40" height="6" fill="#11111080"/>
      <rect x="606" y="544" width="40" height="6" fill="#11111080"/>
      <rect x="702" y="544" width="80" height="6" fill="#11111080"/>
      <rect x="798" y="544" width="60" height="6" fill="#11111080"/>
      <rect x="894" y="544" width="80" height="6" fill="#11111080"/>
      <rect x="990" y="544" width="80" height="6" fill="#11111080"/>
      <rect x="1086" y="544" width="80" height="6" fill="#11111080"/>
      <rect x="1182" y="540" width="60" height="6" fill="#111110"/>
      <rect x="1182" y="552" width="80" height="5" fill="#11111060"/>
      <rect x="1258" y="544" width="40" height="6" fill="#11111080"/>
      <rect x="1334" y="544" width="84" height="6" fill="#111110"/>
    </g>
    <g transform="translate(0 40)">
      <rect x="100" y="540" width="14" height="14" fill="none" stroke="#11111040"/>
      <rect x="132" y="542" width="14" height="14" fill="#C8331C" opacity=".85"/>
      <rect x="156" y="544" width="180" height="6" fill="#111110"/>
      <rect x="318" y="544" width="60" height="6" fill="#11111080"/>
      <rect x="408" y="540" width="60" height="6" fill="#11111080"/>
      <rect x="408" y="550" width="84" height="5" fill="#11111060"/>
      <rect x="510" y="544" width="40" height="6" fill="#11111080"/>
      <rect x="606" y="544" width="40" height="6" fill="#11111080"/>
      <rect x="702" y="544" width="80" height="6" fill="#11111080"/>
      <rect x="798" y="544" width="60" height="6" fill="#11111080"/>
      <rect x="894" y="544" width="80" height="6" fill="#11111080"/>
      <rect x="990" y="544" width="80" height="6" fill="#11111080"/>
      <rect x="1086" y="544" width="80" height="6" fill="#11111080"/>
      <rect x="1182" y="540" width="60" height="6" fill="#111110"/>
      <rect x="1182" y="552" width="80" height="5" fill="#11111060"/>
      <rect x="1258" y="544" width="40" height="6" fill="#11111080"/>
      <rect x="1334" y="544" width="84" height="6" fill="#111110"/>
    </g>
    <g transform="translate(0 80)">
      <rect x="100" y="540" width="14" height="14" fill="none" stroke="#11111040"/>
      <rect x="132" y="542" width="14" height="14" fill="#C8331C" opacity=".85"/>
      <rect x="156" y="544" width="160" height="6" fill="#111110"/>
      <rect x="318" y="544" width="60" height="6" fill="#11111080"/>
      <rect x="408" y="540" width="60" height="6" fill="#11111080"/>
      <rect x="408" y="550" width="84" height="5" fill="#11111060"/>
      <rect x="510" y="544" width="40" height="6" fill="#11111080"/>
      <rect x="606" y="544" width="40" height="6" fill="#11111080"/>
      <rect x="702" y="544" width="80" height="6" fill="#11111080"/>
      <rect x="798" y="544" width="60" height="6" fill="#11111080"/>
      <rect x="894" y="544" width="80" height="6" fill="#11111080"/>
      <rect x="990" y="544" width="80" height="6" fill="#11111080"/>
      <rect x="1086" y="544" width="80" height="6" fill="#11111080"/>
      <rect x="1182" y="540" width="60" height="6" fill="#111110"/>
      <rect x="1182" y="552" width="80" height="5" fill="#11111060"/>
      <rect x="1258" y="544" width="40" height="6" fill="#11111080"/>
      <rect x="1334" y="544" width="84" height="6" fill="#111110"/>
    </g>
  </g>

  <!-- Reconciliations section -->
  <rect x="100" y="690" width="140" height="6" fill="#111110"/>
  <rect x="246" y="690" width="220" height="6" fill="#11111080"/>
  <line x1="100" y1="716" x2="1500" y2="716" stroke="#111110"/>
  <line x1="100" y1="756" x2="1500" y2="756" stroke="#11111014"/>

  <!-- footer -->
  <line x1="60" y1="800" x2="1600" y2="800" stroke="#11111018"/>
  <rect x="100" y="816" width="80" height="36" fill="none" stroke="#11111028"/>
  <rect x="124" y="831" width="32" height="6" fill="#11111060"/>
  <rect x="200" y="816" width="120" height="36" fill="none" stroke="#11111028"/>
  <rect x="224" y="831" width="72" height="6" fill="#11111060"/>
  <rect x="340" y="816" width="160" height="36" fill="#C8331C"/>
  <rect x="364" y="831" width="112" height="6" fill="#F4F1EA"/>
  <rect x="1180" y="824" width="320" height="6" fill="#111110"/>
  <rect x="1180" y="838" width="280" height="5" fill="#11111060"/>

  <g font-family="ui-monospace, SFMono-Regular, Menlo, monospace" font-size="10" letter-spacing="1.5" fill="#11111060">
    <text x="100" y="878">FIG · 04 — VOLUME LICENSING / CREATE ORDER / CART</text>
  </g>

  </g>

  <!-- diagonal watermark -->
  <g transform="rotate(-22 800 450)" pointer-events="none">
    <rect x="0" y="426" width="1600" height="48" fill="#11111014"/>
    <text x="800" y="460" text-anchor="middle"
          font-family="ui-monospace, SFMono-Regular, Menlo, monospace"
          font-size="32" font-weight="500" letter-spacing="14"
          fill="#11111080">REDACTED · NDA</text>
  </g>
</svg>
