<svg xmlns="http://www.w3.org/2000/svg" viewBox="0 0 1600 900" role="img" aria-labelledby="t d">
  <title id="t">Schematic: M365 Admin Centre — Your products</title>
  <desc id="d">Editorial layout abstraction. UI text and data redacted under NDA.</desc>

  <!-- paper -->
  <rect width="1600" height="900" fill="#F4F1EA"/>

  <!-- ====== CONTENT (dimmed to 40% for NDA) ====== -->
  <g opacity="0.4">

  <!-- ====== BROWSER CHROME ====== -->
  <rect x="0" y="0" width="1600" height="34" fill="#11111008"/>
  <line x1="0" y1="34" x2="1600" y2="34" stroke="#11111018"/>
  <rect x="14" y="10" width="180" height="24" rx="4" fill="#F4F1EA" stroke="#11111018"/>
  <rect x="30" y="19" width="120" height="6" fill="#11111060"/>

  <rect x="0" y="34" width="1600" height="40" fill="#F4F1EA"/>
  <line x1="0" y1="74" x2="1600" y2="74" stroke="#11111018"/>
  <rect x="100" y="46" width="1300" height="22" rx="11" fill="none" stroke="#11111028"/>
  <rect x="118" y="54" width="380" height="6" fill="#11111060"/>

  <!-- ====== ADMIN HEADER (dark) ====== -->
  <rect x="0" y="74" width="1600" height="58" fill="#111110"/>
  <!-- waffle -->
  <g fill="#F4F1EA" opacity=".75">
    <rect x="22" y="96" width="3" height="3"/><rect x="30" y="96" width="3" height="3"/><rect x="38" y="96" width="3" height="3"/>
    <rect x="22" y="104" width="3" height="3"/><rect x="30" y="104" width="3" height="3"/><rect x="38" y="104" width="3" height="3"/>
    <rect x="22" y="112" width="3" height="3"/><rect x="30" y="112" width="3" height="3"/><rect x="38" y="112" width="3" height="3"/>
  </g>
  <!-- product wordmark -->
  <rect x="68" y="100" width="170" height="8" fill="#F4F1EA" opacity=".9"/>
  <!-- search field -->
  <rect x="540" y="89" width="520" height="28" rx="2" fill="none" stroke="#F4F1EA" stroke-opacity=".25"/>
  <rect x="558" y="100" width="280" height="6" fill="#F4F1EA" opacity=".45"/>
  <!-- right icons -->
  <rect x="1410" y="93" width="20" height="20" fill="none" stroke="#F4F1EA" stroke-opacity=".3"/>
  <rect x="1444" y="93" width="20" height="20" fill="none" stroke="#F4F1EA" stroke-opacity=".3"/>
  <rect x="1478" y="93" width="20" height="20" fill="none" stroke="#F4F1EA" stroke-opacity=".3"/>
  <rect x="1512" y="93" width="56" height="20" fill="none" stroke="#F4F1EA" stroke-opacity=".3"/>

  <!-- ====== LEFT RAIL ====== -->
  <line x1="240" y1="132" x2="240" y2="900" stroke="#11111018"/>

  <!-- nav items: simplified — single label bar + chevron where applicable -->
  <g>
    <!-- collapse glyph -->
    <rect x="22" y="156" width="18" height="2" fill="#11111060"/>
    <rect x="22" y="164" width="18" height="2" fill="#11111060"/>
    <rect x="22" y="172" width="18" height="2" fill="#11111060"/>

    <!-- HOME (active item, ink) -->
    <rect x="22" y="206" width="14" height="14" fill="none" stroke="#111110" stroke-width="1.2"/>
    <rect x="46" y="210" width="58" height="6" fill="#111110"/>
    <!-- Users -->
    <rect x="22" y="240" width="14" height="14" fill="none" stroke="#11111060"/>
    <rect x="46" y="244" width="46" height="6" fill="#11111080"/>
    <path d="M212 244 l6 6 -6 6" fill="none" stroke="#11111040"/>
    <!-- Devices -->
    <rect x="22" y="272" width="14" height="14" fill="none" stroke="#11111060"/>
    <rect x="46" y="276" width="58" height="6" fill="#11111080"/>
    <path d="M212 276 l6 6 -6 6" fill="none" stroke="#11111040"/>
    <!-- Groups -->
    <rect x="22" y="304" width="14" height="14" fill="none" stroke="#11111060"/>
    <rect x="46" y="308" width="54" height="6" fill="#11111080"/>
    <path d="M212 308 l6 6 -6 6" fill="none" stroke="#11111040"/>
    <!-- Roles -->
    <rect x="22" y="336" width="14" height="14" fill="none" stroke="#11111060"/>
    <rect x="46" y="340" width="38" height="6" fill="#11111080"/>
    <!-- Resources -->
    <rect x="22" y="368" width="14" height="14" fill="none" stroke="#11111060"/>
    <rect x="46" y="372" width="72" height="6" fill="#11111080"/>
    <path d="M212 372 l6 6 -6 6" fill="none" stroke="#11111040"/>

    <!-- BILLING (expanded) -->
    <rect x="22" y="400" width="14" height="14" fill="none" stroke="#111110" stroke-width="1.2"/>
    <rect x="46" y="404" width="46" height="6" fill="#111110"/>
    <path d="M206 410 l6 -6 6 6" fill="none" stroke="#111110"/>

    <!-- Billing sub-items: equal spacing, equal weight -->
    <rect x="46" y="436" width="100" height="6" fill="#11111080"/>
    <!-- Selected: Your products -->
    <rect x="0" y="458" width="240" height="28" fill="#11111010"/>
    <rect x="0" y="458" width="3" height="28" fill="#C8331C"/>
    <rect x="46" y="471" width="92" height="6" fill="#111110"/>
    <rect x="46" y="500" width="56" height="6" fill="#11111080"/>
    <rect x="46" y="526" width="106" height="6" fill="#11111080"/>
    <rect x="46" y="552" width="120" height="6" fill="#11111080"/>
    <rect x="46" y="578" width="106" height="6" fill="#11111080"/>

    <!-- Support -->
    <rect x="22" y="610" width="14" height="14" fill="none" stroke="#11111060"/>
    <rect x="46" y="614" width="50" height="6" fill="#11111080"/>
    <path d="M212 614 l6 6 -6 6" fill="none" stroke="#11111040"/>
    <!-- Settings -->
    <rect x="22" y="642" width="14" height="14" fill="none" stroke="#11111060"/>
    <rect x="46" y="646" width="58" height="6" fill="#11111080"/>
    <path d="M212 646 l6 6 -6 6" fill="none" stroke="#11111040"/>
    <!-- Setup -->
    <rect x="22" y="674" width="14" height="14" fill="none" stroke="#11111060"/>
    <rect x="46" y="678" width="42" height="6" fill="#11111080"/>
    <!-- Reports -->
    <rect x="22" y="706" width="14" height="14" fill="none" stroke="#11111060"/>
    <rect x="46" y="710" width="58" height="6" fill="#11111080"/>
    <path d="M212 710 l6 6 -6 6" fill="none" stroke="#11111040"/>
    <!-- Health -->
    <rect x="22" y="738" width="14" height="14" fill="none" stroke="#11111060"/>
    <rect x="46" y="742" width="44" height="6" fill="#11111080"/>
    <path d="M212 742 l6 6 -6 6" fill="none" stroke="#11111040"/>

    <!-- Admin centers section -->
    <line x1="22" y1="780" x2="218" y2="780" stroke="#11111018"/>
    <rect x="22" y="798" width="100" height="5" fill="#11111060"/>
    <rect x="22" y="824" width="14" height="14" fill="none" stroke="#11111060"/>
    <rect x="46" y="828" width="56" height="6" fill="#11111080"/>
    <rect x="22" y="856" width="14" height="14" fill="none" stroke="#11111060"/>
    <rect x="46" y="860" width="74" height="6" fill="#11111080"/>
  </g>

  <!-- ====== MAIN CONTENT ====== -->
  <!-- breadcrumb -->
  <rect x="288" y="170" width="44" height="6" fill="#11111060"/>
  <path d="M342 171 l6 5 -6 5" fill="none" stroke="#11111040"/>
  <rect x="358" y="170" width="84" height="6" fill="#11111080"/>

  <!-- title -->
  <rect x="288" y="200" width="240" height="28" fill="#111110"/>

  <!-- description -->
  <rect x="288" y="248" width="640" height="6" fill="#11111080"/>
  <rect x="288" y="262" width="500" height="6" fill="#11111080"/>

  <!-- TABS -->
  <g>
    <rect x="288" y="310" width="64" height="6" fill="#11111080"/>
    <rect x="372" y="310" width="100" height="6" fill="#11111080"/>
    <rect x="492" y="310" width="100" height="6" fill="#111110"/>
    <rect x="492" y="324" width="100" height="3" fill="#C8331C"/>
    <rect x="612" y="310" width="60" height="6" fill="#11111080"/>
    <line x1="288" y1="332" x2="1312" y2="332" stroke="#11111018"/>
  </g>

  <!-- ===== CARD GRID 3 x 2 ===== -->
  <!-- column dividers (subtle) -->
  <line x1="610" y1="364" x2="610" y2="800" stroke="#11111014"/>
  <line x1="970" y1="364" x2="970" y2="800" stroke="#11111014"/>

  <!-- Row 1 -->
  <!-- Downloads and keys -->
  <g>
    <rect x="288" y="376" width="148" height="8" fill="#111110"/>
    <rect x="288" y="406" width="280" height="6" fill="#11111080"/>
    <rect x="288" y="422" width="240" height="6" fill="#11111080"/>
    <!-- links: ink + underline -->
    <rect x="288" y="450" width="180" height="5" fill="#111110"/>
    <line x1="288" y1="459" x2="468" y2="459" stroke="#111110"/>
    <rect x="288" y="468" width="160" height="5" fill="#111110"/>
    <line x1="288" y1="477" x2="448" y2="477" stroke="#111110"/>
    <!-- secondary CTA -->
    <rect x="288" y="500" width="160" height="32" fill="none" stroke="#111110" stroke-width="1.2"/>
    <rect x="312" y="513" width="108" height="6" fill="#111110"/>
  </g>

  <!-- Contracts -->
  <g>
    <rect x="640" y="376" width="92" height="8" fill="#111110"/>
    <rect x="640" y="406" width="290" height="6" fill="#11111080"/>
    <rect x="640" y="450" width="120" height="5" fill="#111110"/>
    <line x1="640" y1="459" x2="760" y2="459" stroke="#111110"/>
    <rect x="640" y="500" width="130" height="32" fill="none" stroke="#111110" stroke-width="1.2"/>
    <rect x="664" y="513" width="82" height="6" fill="#111110"/>
  </g>

  <!-- Role assignments -->
  <g>
    <rect x="1000" y="376" width="146" height="8" fill="#111110"/>
    <rect x="1000" y="406" width="290" height="6" fill="#11111080"/>
    <rect x="1000" y="422" width="220" height="6" fill="#11111080"/>
    <rect x="1000" y="500" width="190" height="32" fill="none" stroke="#111110" stroke-width="1.2"/>
    <rect x="1024" y="513" width="142" height="6" fill="#111110"/>
  </g>

  <!-- Row hairline -->
  <line x1="288" y1="588" x2="1312" y2="588" stroke="#11111018"/>

  <!-- Row 2 -->
  <!-- Transactions -->
  <g>
    <rect x="288" y="612" width="116" height="8" fill="#111110"/>
    <rect x="288" y="642" width="300" height="6" fill="#11111080"/>
    <rect x="288" y="690" width="180" height="5" fill="#111110"/>
    <line x1="288" y1="699" x2="468" y2="699" stroke="#111110"/>
    <rect x="288" y="708" width="200" height="5" fill="#111110"/>
    <line x1="288" y1="717" x2="488" y2="717" stroke="#111110"/>
    <!-- primary CTA red + secondary -->
    <rect x="288" y="744" width="120" height="36" fill="#C8331C"/>
    <rect x="312" y="759" width="72" height="6" fill="#F4F1EA"/>
    <rect x="420" y="744" width="110" height="36" fill="none" stroke="#111110" stroke-width="1.2"/>
    <rect x="444" y="759" width="62" height="6" fill="#111110"/>
  </g>

  <!-- Reservations -->
  <g>
    <rect x="640" y="612" width="116" height="8" fill="#111110"/>
    <rect x="640" y="642" width="300" height="6" fill="#11111080"/>
    <rect x="640" y="690" width="200" height="5" fill="#111110"/>
    <line x1="640" y1="699" x2="840" y2="699" stroke="#111110"/>
    <rect x="640" y="744" width="200" height="36" fill="#C8331C"/>
    <rect x="664" y="759" width="152" height="6" fill="#F4F1EA"/>
    <rect x="852" y="744" width="130" height="36" fill="none" stroke="#111110" stroke-width="1.2"/>
    <rect x="876" y="759" width="82" height="6" fill="#111110"/>
  </g>

  <!-- Preferences -->
  <g>
    <rect x="1000" y="612" width="100" height="8" fill="#111110"/>
    <rect x="1000" y="642" width="290" height="6" fill="#11111080"/>
    <rect x="1000" y="658" width="270" height="6" fill="#11111080"/>
    <rect x="1000" y="706" width="100" height="5" fill="#111110"/>
    <line x1="1000" y1="715" x2="1100" y2="715" stroke="#111110"/>
  </g>

  <!-- ====== MONO LABELS ====== -->
  <g font-family="ui-monospace, SFMono-Regular, Menlo, monospace" font-size="10" letter-spacing="1.5" fill="#11111060">
    <text x="288" y="868">FIG · 01 — VOLUME LICENSING / YOUR PRODUCTS</text>
    <text x="1312" y="868" text-anchor="end">REDACTED · NDA · SCHEMATIC</text>
  </g>

  </g>
  <!-- ====== /CONTENT ====== -->

  <!-- ====== DIAGONAL WATERMARK (single, centred, grey band) ====== -->
  <g transform="rotate(-22 800 450)" pointer-events="none">
    <rect x="0" y="426" width="1600" height="48" fill="#11111014"/>
    <text x="800" y="460" text-anchor="middle"
          font-family="ui-monospace, SFMono-Regular, Menlo, monospace"
          font-size="32" font-weight="500" letter-spacing="14"
          fill="#11111080">REDACTED · NDA</text>
  </g>
</svg>
