<svg xmlns="http://www.w3.org/2000/svg" viewBox="0 0 1600 900" role="img" aria-labelledby="t d">
  <title id="t">Schematic: Create midterm order — product catalogue</title>
  <desc id="d">Editorial layout abstraction. UI text and data redacted under NDA.</desc>

  <rect width="1600" height="900" fill="#F4F1EA"/>

  <g opacity="0.4">

  <!-- BROWSER CHROME -->
  <rect x="0" y="0" width="1600" height="34" fill="#11111008"/>
  <line x1="0" y1="34" x2="1600" y2="34" stroke="#11111018"/>
  <rect x="14" y="10" width="180" height="24" rx="4" fill="#F4F1EA" stroke="#11111018"/>
  <rect x="30" y="19" width="120" height="6" fill="#11111060"/>
  <rect x="0" y="34" width="1600" height="40" fill="#F4F1EA"/>
  <line x1="0" y1="74" x2="1600" y2="74" stroke="#11111018"/>
  <rect x="100" y="46" width="1300" height="22" rx="11" fill="none" stroke="#11111028"/>
  <rect x="118" y="54" width="380" height="6" fill="#11111060"/>

  <!-- DARK HEADER -->
  <rect x="0" y="74" width="1600" height="58" fill="#111110"/>
  <g fill="#F4F1EA" opacity=".75">
    <rect x="22" y="96" width="3" height="3"/><rect x="30" y="96" width="3" height="3"/><rect x="38" y="96" width="3" height="3"/>
    <rect x="22" y="104" width="3" height="3"/><rect x="30" y="104" width="3" height="3"/><rect x="38" y="104" width="3" height="3"/>
    <rect x="22" y="112" width="3" height="3"/><rect x="30" y="112" width="3" height="3"/><rect x="38" y="112" width="3" height="3"/>
  </g>
  <rect x="68" y="100" width="170" height="8" fill="#F4F1EA" opacity=".9"/>
  <rect x="540" y="89" width="520" height="28" rx="2" fill="none" stroke="#F4F1EA" stroke-opacity=".25"/>
  <rect x="558" y="100" width="280" height="6" fill="#F4F1EA" opacity=".45"/>
  <rect x="1410" y="93" width="20" height="20" fill="none" stroke="#F4F1EA" stroke-opacity=".3"/>
  <rect x="1444" y="93" width="20" height="20" fill="none" stroke="#F4F1EA" stroke-opacity=".3"/>
  <rect x="1478" y="93" width="20" height="20" fill="none" stroke="#F4F1EA" stroke-opacity=".3"/>
  <rect x="1512" y="93" width="56" height="20" fill="none" stroke="#F4F1EA" stroke-opacity=".3"/>

  <!-- LEFT RAIL (collapsed) -->
  <line x1="60" y1="132" x2="60" y2="900" stroke="#11111018"/>
  <g>
    <rect x="22" y="156" width="14" height="14" fill="none" stroke="#11111060"/>
    <rect x="22" y="190" width="14" height="14" fill="none" stroke="#11111060"/>
    <rect x="22" y="224" width="14" height="14" fill="none" stroke="#11111060"/>
    <rect x="22" y="258" width="14" height="14" fill="none" stroke="#11111060"/>
    <rect x="22" y="292" width="14" height="14" fill="none" stroke="#11111060"/>
    <rect x="22" y="326" width="14" height="14" fill="none" stroke="#11111060"/>
    <rect x="22" y="360" width="14" height="14" fill="none" stroke="#111110" stroke-width="1.2"/>
    <rect x="0" y="356" width="3" height="22" fill="#C8331C"/>
    <rect x="22" y="394" width="14" height="14" fill="none" stroke="#11111060"/>
    <rect x="22" y="428" width="14" height="14" fill="none" stroke="#11111060"/>
    <rect x="22" y="462" width="14" height="14" fill="none" stroke="#11111060"/>
    <rect x="22" y="496" width="14" height="14" fill="none" stroke="#11111060"/>
    <rect x="22" y="530" width="14" height="14" fill="none" stroke="#11111060"/>
  </g>

  <!-- ============ MAIN ============ -->
  <!-- breadcrumb (5 levels) -->
  <g>
    <rect x="100" y="170" width="44" height="6" fill="#11111060"/>
    <path d="M154 171 l6 5 -6 5" fill="none" stroke="#11111040"/>
    <rect x="170" y="170" width="84" height="6" fill="#11111060"/>
    <path d="M264 171 l6 5 -6 5" fill="none" stroke="#11111040"/>
    <rect x="280" y="170" width="100" height="6" fill="#11111060"/>
    <path d="M390 171 l6 5 -6 5" fill="none" stroke="#11111040"/>
    <rect x="406" y="170" width="100" height="6" fill="#11111060"/>
    <path d="M516 171 l6 5 -6 5" fill="none" stroke="#11111040"/>
    <rect x="532" y="170" width="84" height="6" fill="#11111080"/>
  </g>

  <!-- title with link chip -->
  <rect x="100" y="200" width="380" height="28" fill="#111110"/>
  <rect x="492" y="206" width="160" height="22" fill="none" stroke="#C8331C"/>
  <rect x="506" y="213" width="132" height="8" fill="#C8331C"/>

  <!-- description -->
  <rect x="100" y="252" width="800" height="6" fill="#11111080"/>
  <rect x="100" y="266" width="600" height="6" fill="#11111080"/>

  <!-- tabs -->
  <rect x="100" y="298" width="100" height="6" fill="#111110"/>
  <rect x="100" y="312" width="100" height="3" fill="#C8331C"/>
  <rect x="220" y="298" width="120" height="6" fill="#11111080"/>
  <line x1="100" y1="320" x2="1500" y2="320" stroke="#11111018"/>

  <!-- toolbar: Add new + Edit + Delete (left) | items + search + view (right) -->
  <g>
    <circle cx="112" cy="350" r="7" fill="none" stroke="#C8331C"/>
    <rect x="108" y="349" width="8" height="2" fill="#C8331C"/>
    <rect x="111" y="346" width="2" height="8" fill="#C8331C"/>
    <rect x="128" y="347" width="180" height="6" fill="#C8331C"/>
    <rect x="338" y="345" width="14" height="14" fill="none" stroke="#11111040"/>
    <rect x="358" y="347" width="40" height="6" fill="#11111060"/>
    <rect x="430" y="345" width="14" height="14" fill="none" stroke="#11111040"/>
    <rect x="450" y="347" width="60" height="6" fill="#11111060"/>
  </g>
  <g>
    <rect x="1190" y="347" width="50" height="6" fill="#11111080"/>
    <rect x="1252" y="335" width="220" height="28" rx="2" fill="none" stroke="#11111028"/>
    <rect x="1272" y="345" width="100" height="6" fill="#11111060"/>
    <rect x="1480" y="335" width="20" height="28" fill="none" stroke="#11111040"/>
  </g>

  <!-- filter chips row -->
  <rect x="100" y="392" width="40" height="6" fill="#11111060"/>
  <rect x="150" y="382" width="180" height="26" rx="2" fill="none" stroke="#11111028"/>
  <rect x="170" y="392" width="120" height="4" fill="#11111080"/>
  <rect x="338" y="382" width="160" height="26" rx="2" fill="none" stroke="#11111028"/>
  <rect x="358" y="392" width="100" height="4" fill="#11111080"/>
  <rect x="506" y="382" width="100" height="26" rx="2" fill="none" stroke="#11111028"/>
  <rect x="526" y="392" width="60" height="4" fill="#11111080"/>

  <!-- table header -->
  <line x1="100" y1="436" x2="1500" y2="436" stroke="#111110"/>
  <g>
    <rect x="100" y="446" width="14" height="14" fill="none" stroke="#11111060"/>
    <rect x="132" y="450" width="60" height="6" fill="#111110"/>
    <rect x="318" y="450" width="60" height="6" fill="#111110"/>
    <rect x="408" y="450" width="80" height="6" fill="#111110"/>
    <rect x="510" y="450" width="50" height="6" fill="#111110"/>
    <rect x="582" y="450" width="80" height="6" fill="#111110"/>
    <rect x="678" y="450" width="80" height="6" fill="#111110"/>
    <rect x="774" y="450" width="80" height="6" fill="#111110"/>
    <rect x="870" y="450" width="80" height="6" fill="#111110"/>
    <rect x="966" y="450" width="92" height="6" fill="#111110"/>
    <rect x="1074" y="450" width="86" height="6" fill="#111110"/>
    <rect x="1180" y="450" width="80" height="6" fill="#111110"/>
    <rect x="1280" y="450" width="80" height="6" fill="#111110"/>
    <rect x="1380" y="450" width="60" height="6" fill="#111110"/>
  </g>

  <!-- table rows -->
  <g>
    <line x1="100" y1="488" x2="1500" y2="488" stroke="#11111014"/>
    <line x1="100" y1="528" x2="1500" y2="528" stroke="#11111014"/>
    <line x1="100" y1="568" x2="1500" y2="568" stroke="#11111014"/>
    <line x1="100" y1="608" x2="1500" y2="608" stroke="#11111014"/>
    <line x1="100" y1="648" x2="1500" y2="648" stroke="#11111014"/>
    <line x1="100" y1="688" x2="1500" y2="688" stroke="#11111014"/>
    <line x1="100" y1="728" x2="1500" y2="728" stroke="#11111014"/>
  </g>

  <!-- 7 rows abbreviated -->
  <g>
    <g>
      <rect x="100" y="500" width="14" height="14" fill="none" stroke="#11111040"/>
      <rect x="132" y="502" width="14" height="14" fill="#C8331C" opacity=".85"/>
      <rect x="156" y="504" width="140" height="6" fill="#111110"/>
      <rect x="318" y="504" width="60" height="6" fill="#11111080"/>
      <rect x="408" y="500" width="58" height="6" fill="#11111080"/>
      <rect x="408" y="510" width="84" height="5" fill="#11111060"/>
      <rect x="510" y="504" width="40" height="6" fill="#C8331C"/>
      <rect x="582" y="504" width="30" height="6" fill="#11111080"/>
      <rect x="678" y="498" width="60" height="20" fill="none" stroke="#11111028"/>
      <rect x="688" y="506" width="14" height="6" fill="#11111080"/>
      <rect x="774" y="504" width="60" height="6" fill="#11111080"/>
      <rect x="870" y="504" width="60" height="6" fill="#11111080"/>
      <rect x="966" y="498" width="100" height="6" fill="#11111080"/>
      <rect x="966" y="510" width="100" height="6" fill="#11111080"/>
      <rect x="1074" y="504" width="60" height="6" fill="#11111080"/>
      <rect x="1180" y="500" width="60" height="6" fill="#111110"/>
      <rect x="1180" y="510" width="80" height="5" fill="#11111060"/>
      <rect x="1280" y="504" width="20" height="6" fill="#11111080"/>
      <rect x="1380" y="500" width="14" height="14" fill="none" stroke="#11111040"/>
      <rect x="1410" y="500" width="14" height="14" fill="none" stroke="#11111040"/>
    </g>
    <g transform="translate(0 40)">
      <rect x="100" y="500" width="14" height="14" fill="none" stroke="#11111040"/>
      <rect x="132" y="502" width="14" height="14" fill="#C8331C" opacity=".85"/>
      <rect x="156" y="504" width="160" height="6" fill="#111110"/>
      <rect x="318" y="504" width="60" height="6" fill="#11111080"/>
      <rect x="408" y="500" width="58" height="6" fill="#11111080"/>
      <rect x="408" y="510" width="84" height="5" fill="#11111060"/>
      <rect x="510" y="504" width="40" height="6" fill="#C8331C"/>
      <rect x="582" y="504" width="30" height="6" fill="#11111080"/>
      <rect x="678" y="498" width="60" height="20" fill="none" stroke="#11111028"/>
      <rect x="688" y="506" width="14" height="6" fill="#11111080"/>
      <rect x="774" y="504" width="60" height="6" fill="#11111080"/>
      <rect x="870" y="504" width="60" height="6" fill="#11111080"/>
      <rect x="966" y="498" width="100" height="6" fill="#11111080"/>
      <rect x="966" y="510" width="100" height="6" fill="#11111080"/>
      <rect x="1074" y="504" width="60" height="6" fill="#11111080"/>
      <rect x="1180" y="500" width="60" height="6" fill="#111110"/>
      <rect x="1180" y="510" width="80" height="5" fill="#11111060"/>
      <rect x="1280" y="504" width="20" height="6" fill="#11111080"/>
      <rect x="1380" y="500" width="14" height="14" fill="none" stroke="#11111040"/>
      <rect x="1410" y="500" width="14" height="14" fill="none" stroke="#11111040"/>
    </g>
    <g transform="translate(0 80)">
      <rect x="100" y="500" width="14" height="14" fill="none" stroke="#11111040"/>
      <rect x="132" y="502" width="14" height="14" fill="#C8331C" opacity=".85"/>
      <rect x="156" y="504" width="180" height="6" fill="#111110"/>
      <rect x="318" y="504" width="60" height="6" fill="#11111080"/>
      <rect x="408" y="500" width="58" height="6" fill="#11111080"/>
      <rect x="408" y="510" width="84" height="5" fill="#11111060"/>
      <rect x="582" y="504" width="30" height="6" fill="#11111080"/>
      <rect x="678" y="498" width="60" height="20" fill="none" stroke="#11111028"/>
      <rect x="688" y="506" width="14" height="6" fill="#11111080"/>
      <rect x="774" y="504" width="60" height="6" fill="#11111080"/>
      <rect x="870" y="504" width="60" height="6" fill="#11111080"/>
      <rect x="966" y="498" width="100" height="6" fill="#11111080"/>
      <rect x="966" y="510" width="100" height="6" fill="#11111080"/>
      <rect x="1074" y="504" width="60" height="6" fill="#11111080"/>
      <rect x="1180" y="500" width="60" height="6" fill="#111110"/>
      <rect x="1180" y="510" width="80" height="5" fill="#11111060"/>
      <rect x="1280" y="504" width="20" height="6" fill="#11111080"/>
      <rect x="1380" y="500" width="14" height="14" fill="none" stroke="#11111040"/>
      <rect x="1410" y="500" width="14" height="14" fill="none" stroke="#11111040"/>
    </g>
    <g transform="translate(0 120)">
      <rect x="100" y="500" width="14" height="14" fill="none" stroke="#11111040"/>
      <rect x="132" y="502" width="14" height="14" fill="#C8331C" opacity=".85"/>
      <rect x="156" y="504" width="160" height="6" fill="#111110"/>
      <rect x="318" y="504" width="60" height="6" fill="#11111080"/>
      <rect x="408" y="500" width="58" height="6" fill="#11111080"/>
      <rect x="408" y="510" width="84" height="5" fill="#11111060"/>
      <rect x="582" y="504" width="30" height="6" fill="#11111080"/>
      <rect x="678" y="498" width="60" height="20" fill="none" stroke="#11111028"/>
      <rect x="688" y="506" width="14" height="6" fill="#11111080"/>
      <rect x="774" y="504" width="60" height="6" fill="#11111080"/>
      <rect x="870" y="504" width="60" height="6" fill="#11111080"/>
      <rect x="966" y="498" width="100" height="6" fill="#11111080"/>
      <rect x="966" y="510" width="100" height="6" fill="#11111080"/>
      <rect x="1074" y="504" width="60" height="6" fill="#11111080"/>
      <rect x="1180" y="500" width="60" height="6" fill="#111110"/>
      <rect x="1180" y="510" width="80" height="5" fill="#11111060"/>
      <rect x="1280" y="504" width="20" height="6" fill="#11111080"/>
      <rect x="1380" y="500" width="14" height="14" fill="none" stroke="#11111040"/>
      <rect x="1410" y="500" width="14" height="14" fill="none" stroke="#11111040"/>
    </g>
    <g transform="translate(0 160)">
      <rect x="100" y="500" width="14" height="14" fill="none" stroke="#11111040"/>
      <rect x="132" y="502" width="14" height="14" fill="#C8331C" opacity=".85"/>
      <rect x="156" y="504" width="180" height="6" fill="#111110"/>
      <rect x="318" y="504" width="60" height="6" fill="#11111080"/>
      <rect x="408" y="500" width="58" height="6" fill="#11111080"/>
      <rect x="408" y="510" width="84" height="5" fill="#11111060"/>
      <rect x="582" y="504" width="30" height="6" fill="#11111080"/>
      <rect x="678" y="498" width="60" height="20" fill="none" stroke="#11111028"/>
      <rect x="688" y="506" width="14" height="6" fill="#11111080"/>
      <rect x="774" y="504" width="60" height="6" fill="#11111080"/>
      <rect x="870" y="504" width="60" height="6" fill="#11111080"/>
      <rect x="966" y="498" width="100" height="6" fill="#11111080"/>
      <rect x="966" y="510" width="100" height="6" fill="#11111080"/>
      <rect x="1074" y="504" width="60" height="6" fill="#11111080"/>
      <rect x="1180" y="500" width="60" height="6" fill="#111110"/>
      <rect x="1180" y="510" width="100" height="5" fill="#11111060"/>
      <rect x="1280" y="504" width="20" height="6" fill="#11111080"/>
      <rect x="1380" y="500" width="14" height="14" fill="none" stroke="#11111040"/>
      <rect x="1410" y="500" width="14" height="14" fill="none" stroke="#11111040"/>
    </g>
    <g transform="translate(0 200)">
      <rect x="100" y="500" width="14" height="14" fill="none" stroke="#11111040"/>
      <rect x="132" y="502" width="14" height="14" fill="#C8331C" opacity=".85"/>
      <rect x="156" y="504" width="160" height="6" fill="#111110"/>
      <rect x="318" y="504" width="60" height="6" fill="#11111080"/>
      <rect x="408" y="500" width="58" height="6" fill="#11111080"/>
      <rect x="408" y="510" width="84" height="5" fill="#11111060"/>
      <rect x="582" y="504" width="30" height="6" fill="#11111080"/>
      <rect x="678" y="498" width="60" height="20" fill="none" stroke="#11111028"/>
      <rect x="688" y="506" width="14" height="6" fill="#11111080"/>
      <rect x="774" y="504" width="60" height="6" fill="#11111080"/>
      <rect x="870" y="504" width="60" height="6" fill="#11111080"/>
      <rect x="966" y="498" width="100" height="6" fill="#11111080"/>
      <rect x="966" y="510" width="100" height="6" fill="#11111080"/>
      <rect x="1074" y="504" width="60" height="6" fill="#11111080"/>
      <rect x="1180" y="500" width="60" height="6" fill="#111110"/>
      <rect x="1180" y="510" width="80" height="5" fill="#11111060"/>
      <rect x="1280" y="504" width="20" height="6" fill="#11111080"/>
      <rect x="1380" y="500" width="14" height="14" fill="none" stroke="#11111040"/>
      <rect x="1410" y="500" width="14" height="14" fill="none" stroke="#11111040"/>
    </g>
  </g>

  <!-- footer action bar -->
  <line x1="60" y1="780" x2="1600" y2="780" stroke="#11111018"/>
  <rect x="100" y="800" width="100" height="36" fill="none" stroke="#11111028"/>
  <rect x="124" y="815" width="52" height="6" fill="#11111060"/>
  <rect x="216" y="800" width="120" height="36" fill="none" stroke="#11111028"/>
  <rect x="240" y="815" width="72" height="6" fill="#11111060"/>
  <rect x="350" y="800" width="80" height="36" fill="none" stroke="#11111028"/>
  <rect x="374" y="815" width="32" height="6" fill="#11111060"/>
  <rect x="1180" y="808" width="320" height="6" fill="#111110"/>
  <rect x="1180" y="822" width="280" height="5" fill="#11111060"/>

  <g font-family="ui-monospace, SFMono-Regular, Menlo, monospace" font-size="10" letter-spacing="1.5" fill="#11111060">
    <text x="100" y="868">FIG · 03 — VOLUME LICENSING / CREATE ORDER / PRODUCTS</text>
  </g>

  </g>

  <!-- diagonal watermark -->
  <g transform="rotate(-22 800 450)" pointer-events="none">
    <rect x="0" y="426" width="1600" height="48" fill="#11111014"/>
    <text x="800" y="460" text-anchor="middle"
          font-family="ui-monospace, SFMono-Regular, Menlo, monospace"
          font-size="32" font-weight="500" letter-spacing="14"
          fill="#11111080">REDACTED · NDA</text>
  </g>
</svg>
