<svg xmlns="http://www.w3.org/2000/svg" viewBox="0 0 1000 1200" role="img" aria-labelledby="title desc"><title id="title">Continuous design loop</title><desc id="desc">Four connected stages show research, systems mapping, prototyping, and learning.</desc><rect width="1000" height="1200" fill="#ff5c35"/><path d="M0 0h1000v230H0z" fill="#fff8ee"/><text x="64" y="106" fill="#151515" font-family="Space Grotesk, sans-serif" font-size="54" font-weight="700">AMBIGUITY</text><text x="64" y="175" fill="#151515" font-family="Space Grotesk, sans-serif" font-size="54" font-weight="700">IS MATERIAL.</text><circle cx="500" cy="680" r="300" fill="#58d8e6" stroke="#151515" stroke-width="6"/><path d="M500 330a350 350 0 0 1 350 350" fill="none" stroke="#d9f54a" stroke-width="54"/><path d="m828 616 65 90-110 6" fill="#d9f54a" stroke="#151515" stroke-width="6"/><path d="M500 1030a350 350 0 0 1-350-350" fill="none" stroke="#ffb4dc" stroke-width="54"/><path d="m172 744-65-90 110-6" fill="#ffb4dc" stroke="#151515" stroke-width="6"/><g stroke="#151515" stroke-width="5"><rect x="350" y="470" width="300" height="420" fill="#fff8ee"/><rect x="395" y="525" width="210" height="26" fill="#151515"/><circle cx="430" cy="635" r="42" fill="#3255ff"/><rect x="500" y="608" width="105" height="20" fill="#151515"/><rect x="500" y="650" width="75" height="16" fill="#151515"/><rect x="395" y="728" width="210" height="100" fill="#d9f54a"/></g><g font-family="Space Grotesk, sans-serif" font-size="28" font-weight="700" fill="#151515"><text x="95" y="365">01 / FIND</text><text x="705" y="365">02 / MAP</text><text x="705" y="1065">03 / MAKE</text><text x="95" y="1065">04 / LEARN</text></g></svg>