<svg xmlns="http://www.w3.org/2000/svg" viewBox="0 0 1600 1100" role="img" aria-labelledby="title desc"><title id="title">Commerce insights signals</title><desc id="desc">A magnifying lens reveals connected commercial signals and trends.</desc><rect width="1600" height="1100" fill="#ffb4dc"/><path d="M0 0h530v1100H0z" fill="#3255ff"/><g stroke="#151515" stroke-width="5"><rect x="100" y="120" width="430" height="690" fill="#fff8ee"/><rect x="160" y="200" width="310" height="34" fill="#151515"/><path d="M170 650l72-130 88 68 110-226" fill="none" stroke="#ff5c35" stroke-width="24"/><circle cx="242" cy="520" r="16" fill="#d9f54a"/><circle cx="330" cy="588" r="16" fill="#58d8e6"/><circle cx="440" cy="362" r="16" fill="#ff5c35"/></g><g stroke="#151515" stroke-width="7"><circle cx="995" cy="485" r="300" fill="#58d8e6"/><path d="m1210 700 250 250" stroke-width="90"/><circle cx="995" cy="485" r="215" fill="#fff8ee"/></g><g stroke="#151515" stroke-width="5"><rect x="830" y="365" width="110" height="200" fill="#d9f54a"/><rect x="960" y="300" width="110" height="265" fill="#ff5c35"/><rect x="1090" y="430" width="110" height="135" fill="#3255ff"/></g><path d="M760 780h420" stroke="#151515" stroke-width="8" stroke-dasharray="16 12"/><text x="92" y="990" fill="#fff8ee" font-family="Space Grotesk, sans-serif" font-size="76" font-weight="700" transform="rotate(-90 92 990)">SIGNAL</text><text x="650" y="1020" fill="#151515" font-family="Space Grotesk, sans-serif" font-size="84" font-weight="700">SEE WHAT MATTERS</text></svg>